<svg width="17" height="17" viewBox="0 0 17 17" fill="none" xmlns="http://www.w3.org/2000/svg">
<path d="M4.2054 0.514572C4.81888 1.35408 5.54 2.43037 6.36874 3.74344C6.57324 4.08785 6.54095 4.51299 6.27187 5.01885C6.18577 5.19105 5.92746 5.67 5.49694 6.45569C5.58305 6.58485 5.6826 6.71938 5.79562 6.8593C5.90863 6.99922 6.02971 7.14721 6.15886 7.30327C6.28802 7.45933 6.42794 7.61809 6.57862 7.77953C6.7293 7.94097 6.88805 8.11049 7.05487 8.28808C7.2217 8.46566 7.3966 8.64594 7.57957 8.82891C8.5267 9.77605 9.31239 10.4756 9.93664 10.9277C10.6362 10.5187 11.1152 10.2496 11.3735 10.1205C11.6426 9.96978 11.9009 9.89444 12.1484 9.89444C12.3421 9.89444 12.509 9.93749 12.6489 10.0236C13.6068 10.6048 14.6938 11.3259 15.9101 12.1869C16.1253 12.3591 16.2545 12.5852 16.2975 12.865C16.3298 13.1556 16.2383 13.4677 16.0231 13.8014C15.937 13.9305 15.7701 14.1458 15.5226 14.4471C15.2966 14.727 14.9548 15.0822 14.4974 15.5127C14.04 15.9432 13.666 16.1584 13.3754 16.1584H13.3431C12.2345 16.1154 11.0022 15.6795 9.64604 14.8508C8.28992 14.022 6.80464 12.8058 5.1902 11.2021C1.9721 7.97326 0.31999 5.25563 0.233887 3.04924C0.233887 2.75864 0.449145 2.37655 0.879661 1.90299C1.29941 1.45094 1.64921 1.11191 1.92904 0.885892C2.20888 0.670634 2.4349 0.503809 2.60711 0.385417C2.83313 0.223973 3.09682 0.143251 3.39818 0.143251C3.74259 0.143251 4.01166 0.267025 4.2054 0.514572ZM3.17216 1.17649C2.75241 1.47785 2.34342 1.82765 1.94519 2.22587C1.55772 2.61334 1.3317 2.89855 1.26713 3.08152C1.35323 5.01885 2.9004 7.48893 5.90863 10.4918C8.91686 13.4946 11.395 15.0499 13.3431 15.1575C13.5045 15.0929 13.779 14.8615 14.1665 14.4633C14.5539 14.0651 14.9037 13.6507 15.2158 13.2202C15.2481 13.1771 15.2697 13.1368 15.2804 13.0991C15.2912 13.0614 15.2912 13.0264 15.2804 12.9942C14.0427 12.1331 12.9987 11.4335 12.1484 10.8954C12.0623 10.8954 11.9547 10.9277 11.8255 10.9923C11.7825 11.0138 11.6103 11.1106 11.3089 11.2829C11.0075 11.4551 10.7116 11.6165 10.421 11.7672L9.88821 12.0901L9.35544 11.7349C8.67738 11.2721 7.84326 10.5348 6.85307 9.52312C5.88441 8.5437 5.15791 7.70957 4.67358 7.02075L4.28612 6.52027L4.60901 5.95522C5.00723 5.2341 5.26554 4.76592 5.38393 4.55066C5.44851 4.4215 5.4808 4.31388 5.4808 4.22777C5.11486 3.64658 4.75969 3.09498 4.41527 2.57298C4.07086 2.05098 3.74259 1.56395 3.43047 1.11191H3.39818C3.31208 1.11191 3.23674 1.13344 3.17216 1.17649Z" fill="white"/>
</svg>
