<svg width="40" height="40" viewBox="0 0 40 40" fill="none" xmlns="http://www.w3.org/2000/svg">
<rect x="0.890625" y="0.125" width="38.9844" height="38.9844" rx="4" fill="white"/>
<g clip-path="url(#clip0_44_393)">
<path d="M26.7357 6.78881C28.7102 6.78881 30.3762 7.47989 31.7337 8.86205C33.2639 8.56587 34.6954 8.03522 36.0282 7.27009C35.5099 8.84971 34.5227 10.0591 33.0665 10.8983C34.4239 10.7502 35.7197 10.4046 36.9538 9.86165C36.6576 10.3059 36.3306 10.7317 35.9727 11.1389C35.6148 11.5462 35.2323 11.9287 34.825 12.2866C34.4178 12.6445 33.992 12.9839 33.5477 13.3047C33.5724 13.6009 33.5848 13.8847 33.5848 14.1562C33.5848 15.6124 33.3935 17.081 33.0109 18.5619C32.6284 20.0428 32.073 21.4866 31.3449 22.8935C30.6168 24.3003 29.6913 25.6084 28.5683 26.8178C27.4453 28.0272 26.1865 29.0885 24.792 30.0017C23.3975 30.9149 21.7932 31.6307 19.9791 32.149C18.165 32.6673 16.246 32.9265 14.2222 32.9265C10.4459 32.9265 6.96581 31.9392 3.7819 29.9647C4.0534 29.9894 4.31872 30.0141 4.57788 30.0387C4.83703 30.0634 5.1147 30.0758 5.41088 30.0758C8.57011 30.0758 11.3838 29.1255 13.8519 27.2251C12.3711 27.2004 11.0506 26.7623 9.89056 25.9108C8.73054 25.0593 7.92839 23.9671 7.48412 22.6343C7.63221 22.659 7.77413 22.6837 7.90988 22.7084C8.04562 22.733 8.18754 22.7515 8.33563 22.7639C8.48372 22.7762 8.63181 22.7824 8.7799 22.7824C9.39693 22.7824 9.98929 22.696 10.557 22.5232C9.00203 22.2271 7.70625 21.4743 6.66963 20.2649C5.63301 19.0555 5.1147 17.6486 5.1147 16.0444V15.9703C6.07728 16.4886 7.10156 16.7601 8.18754 16.7848C7.57051 16.3899 7.03985 15.9148 6.59559 15.3594C6.15132 14.8041 5.79961 14.1747 5.54046 13.4713C5.2813 12.7679 5.15172 12.046 5.15172 11.3055C5.15172 10.7132 5.23194 10.1331 5.39237 9.56547C5.5528 8.9978 5.7811 8.46714 6.07728 7.97351C7.7803 10.0221 9.84737 11.6511 12.2785 12.8604C14.7096 14.0698 17.3197 14.7486 20.1087 14.8967C19.9853 14.403 19.9236 13.8971 19.9236 13.3788C19.9236 11.5523 20.59 9.99739 21.9228 8.71396C23.2556 7.43052 24.8599 6.78881 26.7357 6.78881ZM26.7357 4.41938C24.4403 4.41938 22.4287 5.166 20.701 6.65923C18.9733 8.15246 17.9614 9.99739 17.6652 12.194C13.6915 11.4042 10.4336 9.49142 7.89137 6.4556C7.42242 5.88793 6.81772 5.60409 6.07728 5.60409L5.89217 5.64112C5.07768 5.69048 4.46064 6.0607 4.04106 6.75178C3.20189 8.15863 2.7823 9.67654 2.7823 11.3055C2.7823 12.3668 2.96741 13.3911 3.33763 14.3784C2.94273 14.8473 2.74528 15.378 2.74528 15.9703V16.0444C2.74528 18.3891 3.55977 20.4253 5.18874 22.153C5.13938 22.3505 5.12087 22.5541 5.13321 22.7639C5.14555 22.9737 5.1764 23.1773 5.22577 23.3748C5.76876 24.979 6.68197 26.3242 7.96541 27.4102C7.54582 27.5089 7.12007 27.5829 6.68814 27.6323C6.25622 27.6817 5.83046 27.7063 5.41088 27.7063C4.91725 27.7063 4.46064 27.6817 4.04106 27.6323L3.7819 27.5953C3.26359 27.5953 2.80081 27.7434 2.39357 28.0395C1.98632 28.3357 1.69632 28.7183 1.52355 29.1872C1.35078 29.7055 1.35695 30.23 1.54206 30.7607C1.72717 31.2913 2.0542 31.6924 2.52315 31.9639C6.07728 34.1852 9.97695 35.2959 14.2222 35.2959C16.8384 35.2959 19.3065 34.9072 21.6266 34.1297C23.9467 33.3522 25.9582 32.2848 27.6612 30.9273C29.3642 29.5698 30.839 28.0087 32.0854 26.244C33.3318 24.4792 34.282 22.5911 34.9361 20.5796C35.5901 18.568 35.9295 16.5256 35.9542 14.4524C37.0649 13.5392 38.0274 12.4902 38.8419 11.3055C39.0147 11.1081 39.1381 10.8859 39.2121 10.6391C39.2862 10.3923 39.3232 10.1331 39.3232 9.86165C39.3232 9.04716 38.99 8.40544 38.3236 7.93649C38.3977 7.61563 38.4223 7.30712 38.3977 7.01094C38.373 6.71476 38.2866 6.42475 38.1385 6.14092C37.9904 5.85708 37.793 5.61644 37.5461 5.41898C37.1019 5.07344 36.5959 4.90067 36.0282 4.90067C35.9295 4.90067 35.8308 4.90684 35.7321 4.91918C35.6333 4.93152 35.5346 4.95004 35.4359 4.97472C35.3372 4.9994 35.2384 5.03025 35.1397 5.06727C35.041 5.10429 34.9423 5.14749 34.8435 5.19685C34.0784 5.6658 33.2516 6.02368 32.363 6.27049C30.6847 5.03642 28.8089 4.41938 26.7357 4.41938Z" fill="#1E2E85"/>
</g>
<defs>
<clipPath id="clip0_44_393">
<rect width="38.9844" height="38.9844" fill="white" transform="matrix(1 0 0 -1 0.890625 39.1094)"/>
</clipPath>
</defs>
</svg>
