<svg width="13" height="18" viewBox="0 0 13 18" fill="none" xmlns="http://www.w3.org/2000/svg">
<path d="M6.49789 0.91716C5.65839 0.91716 4.85386 1.08668 4.08431 1.42571C3.31477 1.76474 2.65016 2.21678 2.09049 2.78183C1.53082 3.34688 1.08147 4.01688 0.742434 4.7918C0.403402 5.56673 0.233887 6.37395 0.233887 7.21346C0.233887 7.68702 0.298464 8.18212 0.427619 8.69874C0.556774 9.21536 0.707454 9.6943 0.879661 10.1356C1.05187 10.5769 1.29941 11.0666 1.6223 11.6047C1.94519 12.1429 2.2331 12.5976 2.48602 12.9689C2.73895 13.3402 3.08067 13.7923 3.51119 14.325C3.94171 14.8578 4.27536 15.2641 4.51214 15.5439C4.74892 15.8238 5.08257 16.2112 5.51309 16.7063C5.64224 16.857 5.73911 16.9646 5.80369 17.0292C5.82521 17.0615 5.86288 17.1019 5.9167 17.1503C5.97051 17.1987 6.06738 17.2606 6.2073 17.336C6.34721 17.4113 6.48175 17.449 6.61091 17.449H6.65934C6.9607 17.449 7.22977 17.3091 7.46656 17.0292C10.9107 13.0685 12.6327 9.79655 12.6327 7.21346C12.6327 5.41605 12.0838 3.92539 10.986 2.74147C9.84516 1.52526 8.34911 0.91716 6.49789 0.91716ZM6.69163 16.335C6.68086 16.3565 6.65934 16.3781 6.62705 16.3996C6.60552 16.3781 6.584 16.3565 6.56247 16.335L6.28802 16.0283C5.87903 15.5547 5.56152 15.1861 5.3355 14.9224C5.10948 14.6587 4.79198 14.2739 4.38298 13.7681C3.97399 13.2622 3.65111 12.8344 3.41432 12.4846C3.17754 12.1348 2.90309 11.7097 2.59096 11.2092C2.27884 10.7087 2.03936 10.2567 1.87254 9.85306C1.70571 9.44945 1.5631 9.01355 1.44471 8.54537C1.32632 8.07718 1.26713 7.63321 1.26713 7.21346C1.26713 6.27708 1.50391 5.4026 1.97748 4.59C2.45104 3.7774 3.08875 3.13432 3.89058 2.66075C4.69242 2.18718 5.56152 1.9504 6.49789 1.9504C7.34816 1.9504 8.10695 2.09839 8.77425 2.39437C9.44155 2.69035 9.977 3.09127 10.3806 3.59712C10.7842 4.10298 11.0883 4.66265 11.2928 5.27613C11.4973 5.88962 11.5995 6.53539 11.5995 7.21346C11.5995 9.53824 9.96355 12.5788 6.69163 16.335ZM6.44946 4.03302C6.11581 4.03302 5.79023 4.08683 5.47273 4.19446C5.15522 4.30209 4.87001 4.45008 4.61708 4.63843C4.36415 4.82678 4.14082 5.05011 3.94709 5.30842C3.75336 5.56673 3.60537 5.85195 3.50312 6.16407C3.40087 6.4762 3.34975 6.79908 3.34975 7.13274C3.34975 7.99377 3.6538 8.72564 4.2619 9.32837C4.87001 9.93109 5.60188 10.2325 6.45753 10.2325C7.31318 10.2325 8.04237 9.93109 8.64509 9.32837C9.24782 8.72564 9.54918 7.99377 9.54918 7.13274C9.54918 6.71298 9.46846 6.31206 9.30701 5.92998C9.14557 5.5479 8.92493 5.21963 8.64509 4.94518C8.36526 4.67072 8.0343 4.45008 7.65222 4.28326C7.27013 4.11643 6.86921 4.03302 6.44946 4.03302ZM6.44946 9.19921C5.87903 9.19921 5.38932 8.99472 4.98033 8.58573C4.57134 8.17674 4.36684 7.68702 4.36684 7.11659C4.36684 6.54616 4.56864 6.05914 4.97225 5.65553C5.37586 5.25192 5.86288 5.05011 6.43332 5.05011C7.00375 5.05011 7.49077 5.25192 7.89438 5.65553C8.29799 6.05914 8.49979 6.54616 8.49979 7.11659C8.49979 7.82694 8.21458 8.39199 7.64414 8.81175C7.28897 9.07006 6.89074 9.19921 6.44946 9.19921Z" fill="white"/>
</svg>
