<svg width="40" height="40" viewBox="0 0 40 40" fill="none" xmlns="http://www.w3.org/2000/svg">
<rect x="0.78125" y="0.125" width="38.9844" height="38.9844" rx="4" fill="white"/>
<path d="M13.4244 3.86401L13.6465 3.90104H16.7193V7.45517H13.6465C13.4737 7.45517 13.3071 7.46751 13.1467 7.49219C12.9863 7.51687 12.8567 7.56006 12.758 7.62177C12.6592 7.68347 12.5667 7.75135 12.4803 7.82539C12.3939 7.89944 12.3199 7.97348 12.2582 8.04752C12.1965 8.12157 12.1471 8.20178 12.1101 8.28817C12.0731 8.37455 12.0484 8.4486 12.036 8.5103C12.0237 8.572 12.0114 8.63371 11.999 8.69541C11.9867 8.75712 11.9805 8.80031 11.9805 8.82499V8.89903V14.5264H17.9781L17.1266 18.0805H11.9805V35.8512H8.42638V18.0805H3.68754V14.5264H8.42638V9.0101C8.42638 8.24498 8.5251 7.56006 8.72256 6.95537C8.92001 6.35067 9.18533 5.87555 9.51853 5.53001C9.85173 5.18447 10.1911 4.88829 10.5366 4.64148C10.8822 4.39466 11.2647 4.2219 11.6843 4.12317C12.1039 4.02444 12.4371 3.95657 12.6839 3.91955C12.9307 3.88253 13.1776 3.86401 13.4244 3.86401ZM13.4244 1.49459C11.8941 1.49459 10.5243 1.86481 9.31491 2.60526C7.14294 3.91338 6.05696 6.04832 6.05696 9.0101V12.157H3.68754C3.04582 12.157 2.49048 12.3915 2.02154 12.8604C1.55259 13.3294 1.31812 13.8847 1.31812 14.5264V18.0805C1.31812 18.7223 1.55259 19.2776 2.02154 19.7465C2.49048 20.2155 3.04582 20.45 3.68754 20.45H6.05696V35.8142C6.05696 36.4806 6.28526 37.0421 6.74187 37.4987C7.19847 37.9553 7.75998 38.1836 8.42638 38.1836H11.9805C12.6222 38.1836 13.1776 37.9553 13.6465 37.4987C14.1155 37.0421 14.3499 36.4806 14.3499 35.8142V20.45H17.1266C17.6696 20.45 18.1509 20.2895 18.5705 19.9687C18.99 19.6478 19.2739 19.2406 19.422 18.7469L20.2365 15.1928C20.4586 14.4277 20.3352 13.7304 19.8662 13.1011C19.3973 12.4717 18.7679 12.157 17.9781 12.157H14.3499V9.82459H16.7193C17.3611 9.82459 17.9164 9.59011 18.3853 9.12117C18.8543 8.65222 19.0888 8.09689 19.0888 7.45517V4.0121C19.0888 3.96274 19.0888 3.92572 19.0888 3.90104C19.0888 3.23464 18.8605 2.67313 18.4039 2.21653C17.9473 1.75992 17.3981 1.53162 16.7564 1.53162H13.7206C13.6218 1.50694 13.5231 1.49459 13.4244 1.49459Z" fill="#1E2E85"/>
</svg>
