<svg width="39" height="40" viewBox="0 0 39 40" fill="none" xmlns="http://www.w3.org/2000/svg">
<rect y="0.125" width="38.9844" height="38.9844" rx="4" fill="white"/>
<g clip-path="url(#clip0_44_389)">
<path d="M37.485 37.9986H29.7844C29.5129 37.9986 29.2784 37.9061 29.081 37.721C28.8835 37.5358 28.7848 37.3075 28.7848 37.036V24.6336C28.7848 23.8191 28.7046 23.128 28.5442 22.5604C28.3837 21.9927 28.1986 21.5731 27.9888 21.3016C27.779 21.0301 27.5137 20.8142 27.1928 20.6537C26.872 20.4933 26.6313 20.4069 26.4709 20.3946C26.3105 20.3822 26.1069 20.3761 25.8601 20.3761C25.2677 20.3761 24.737 20.5241 24.2681 20.8203C23.7991 21.1165 23.4721 21.4065 23.287 21.6903C23.1019 21.9742 22.9476 22.2642 22.8242 22.5604C22.7749 22.7085 22.7317 22.9121 22.6947 23.1712C22.6576 23.4304 22.6391 23.7327 22.6391 24.0783V37.036C22.6391 37.3075 22.5404 37.542 22.3429 37.7395C22.1455 37.9369 21.911 38.0356 21.6395 38.0356H13.9389C13.8155 38.0356 13.6921 38.011 13.5687 37.9616C13.4453 37.9122 13.3342 37.8382 13.2355 37.7395C13.038 37.542 12.9516 37.3075 12.9763 37.036C12.9763 37.036 12.9763 36.7152 12.9763 36.0735C12.9763 35.4317 12.9763 34.6173 12.9763 33.63C12.9763 32.6427 12.9825 31.4951 12.9948 30.1869C13.0072 28.8788 13.0133 27.546 13.0133 26.1885C13.0133 24.8311 13.0133 23.4674 13.0133 22.0976C13.0133 20.7278 13.0133 19.4875 13.0133 18.3769C13.0133 17.2662 13.0072 16.3036 12.9948 15.4891C12.9825 14.6746 12.9763 14.144 12.9763 13.8972C12.9516 13.6257 13.038 13.385 13.2355 13.1752C13.4329 12.9654 13.6674 12.8605 13.9389 12.8605H21.6395C21.7876 12.8605 21.9234 12.8852 22.0468 12.9346C22.1702 12.984 22.2751 13.0518 22.3615 13.1382C22.4478 13.2246 22.5157 13.3295 22.5651 13.4529C22.6144 13.5763 22.6391 13.7121 22.6391 13.8601V14.4155C24.2187 13.0086 26.2056 12.3052 28.5997 12.3052C31.6849 12.3052 34.0975 13.3172 35.8375 15.341C37.5776 17.3649 38.4476 20.1663 38.4476 23.7451V37.036C38.4476 37.1595 38.4229 37.2829 38.3736 37.4063C38.3242 37.5297 38.2563 37.6346 38.1699 37.721C38.0835 37.8073 37.9786 37.8752 37.8552 37.9246C37.7318 37.9739 37.6084 37.9986 37.485 37.9986ZM30.747 36.0364H36.4854V23.7451C36.4854 20.7339 35.8005 18.4077 34.4307 16.7664C33.0609 15.1251 31.1172 14.3044 28.5997 14.3044C26.0328 14.3044 24.0336 15.3657 22.6021 17.4883C22.4787 17.9573 22.1702 18.1917 21.6765 18.1917H21.6025C21.2323 18.1917 20.9484 18.019 20.751 17.6734C20.6029 17.4266 20.5782 17.1675 20.6769 16.896V14.8227H14.9385C14.9879 17.5624 14.9879 24.6336 14.9385 36.0364H20.6769V24.0783C20.6769 23.1157 20.788 22.3629 21.0101 21.8199C21.1829 21.4003 21.3927 21.0116 21.6395 20.6537C21.8863 20.2958 22.164 19.975 22.4725 19.6911C22.781 19.4073 23.1142 19.1728 23.4721 18.9877C23.83 18.8026 24.2126 18.6545 24.6198 18.5435C25.0271 18.4324 25.4405 18.3769 25.8601 18.3769C26.8967 18.3769 27.779 18.6237 28.5071 19.1173C29.2352 19.6109 29.7906 20.3205 30.1731 21.2461C30.5557 22.1716 30.747 23.3008 30.747 24.6336V36.0364ZM9.68135 37.9986H1.98073C1.70923 37.9986 1.47476 37.9061 1.27731 37.721C1.07986 37.5358 0.981132 37.3075 0.981132 37.036V13.8601C0.981132 13.5887 1.07986 13.3542 1.27731 13.1567C1.47476 12.9593 1.70923 12.8605 1.98073 12.8605H9.68135C9.95284 12.8605 10.1873 12.9593 10.3848 13.1567C10.5822 13.3542 10.6809 13.5887 10.6809 13.8601V37.036C10.6809 37.2088 10.6378 37.3692 10.5514 37.5173C10.465 37.6654 10.3416 37.7827 10.1811 37.869C10.0207 37.9554 9.85412 37.9986 9.68135 37.9986ZM2.98033 36.0364H8.71877V14.8227H2.98033V36.0364ZM5.83104 11.6758H5.79402C4.26377 11.6758 3.00501 11.2007 2.01775 10.2505C1.03049 9.30025 0.536865 8.1032 0.536865 6.65933C0.536865 5.21547 1.04284 4.02459 2.05478 3.08669C3.06672 2.14879 4.35015 1.67984 5.90508 1.67984C7.41065 1.67984 8.65707 2.14262 9.64433 3.06818C10.6316 3.99373 11.1376 5.18461 11.1622 6.64082C11.1622 8.09702 10.6624 9.30025 9.66284 10.2505C8.66324 11.2007 7.38597 11.6758 5.83104 11.6758ZM5.90508 3.64202C4.89314 3.64202 4.07249 3.91969 3.44311 4.47502C2.81373 5.03035 2.49904 5.76463 2.49904 6.67784C2.49904 7.56637 2.80756 8.29448 3.4246 8.86215C4.04163 9.42982 4.83144 9.71366 5.79402 9.71366H5.83104C6.49744 9.71366 7.08362 9.58408 7.58959 9.32493C8.09556 9.06577 8.49047 8.70789 8.7743 8.25129C9.05814 7.79468 9.20006 7.2702 9.20006 6.67784C9.17538 5.76463 8.86686 5.03035 8.27451 4.47502C7.68215 3.91969 6.89234 3.64202 5.90508 3.64202Z" fill="#1E2E85"/>
</g>
<defs>
<clipPath id="clip0_44_389">
<rect width="38.9844" height="38.9844" fill="white" transform="matrix(1 0 0 -1 0 39.1094)"/>
</clipPath>
</defs>
</svg>
