<svg width="45" height="46" viewBox="0 0 45 46" fill="none" xmlns="http://www.w3.org/2000/svg">
<rect y="0.248047" width="44.8136" height="44.8136" rx="4" fill="#2E3192"/>
<path d="M32.9104 29.6456C32.412 29.6472 31.9198 29.7563 31.4671 29.9653C31.0145 30.1743 30.6119 30.4785 30.2868 30.8572L15.3402 23.3652C15.4463 22.8824 15.4463 22.3823 15.3402 21.8994L30.2868 14.4075C30.8446 15.0346 31.6112 15.4366 32.4432 15.5383C33.2752 15.64 34.1157 15.4345 34.8074 14.9601C35.4992 14.4857 35.995 13.775 36.202 12.9609C36.4091 12.1467 36.3132 11.2848 35.9323 10.5364C35.5515 9.78791 34.9117 9.20414 34.1327 8.89419C33.3536 8.58424 32.4886 8.56934 31.6994 8.85228C30.9102 9.13521 30.2508 9.69661 29.8445 10.4315C29.4382 11.1664 29.3129 12.0245 29.4919 12.8453L14.5453 20.3372C14.0784 19.7966 13.4579 19.412 12.7668 19.2349C12.0757 19.0578 11.3472 19.0968 10.6788 19.3465C10.0104 19.5962 9.43415 20.0448 9.02727 20.6321C8.6204 21.2194 8.40234 21.9173 8.40234 22.6323C8.40234 23.3474 8.6204 24.0453 9.02727 24.6326C9.43415 25.2199 10.0104 25.6685 10.6788 25.9182C11.3472 26.1679 12.0757 26.2068 12.7668 26.0297C13.4579 25.8527 14.0784 25.468 14.5453 24.9274L29.4919 32.4194C29.3407 33.1285 29.4125 33.8671 29.6975 34.5336C29.9824 35.2001 30.4665 35.7617 31.083 36.141C31.6995 36.5202 32.4181 36.6986 33.14 36.6515C33.8618 36.6044 34.5513 36.3341 35.1136 35.8779C35.6758 35.4217 36.0832 34.802 36.2795 34.1041C36.4759 33.4062 36.4516 32.6645 36.21 31.981C35.9684 31.2975 35.5213 30.7059 34.9304 30.2877C34.3395 29.8695 33.6338 29.6451 32.9104 29.6456ZM32.9104 10.3591C33.2563 10.3591 33.5945 10.4619 33.8821 10.6546C34.1698 10.8472 34.394 11.1211 34.5263 11.4414C34.6587 11.7618 34.6934 12.1143 34.6259 12.4545C34.5584 12.7946 34.3918 13.107 34.1472 13.3522C33.9026 13.5974 33.5909 13.7644 33.2516 13.832C32.9124 13.8997 32.5607 13.865 32.2411 13.7323C31.9215 13.5996 31.6483 13.3748 31.4561 13.0865C31.2639 12.7982 31.1614 12.4592 31.1614 12.1124C31.1614 11.6474 31.3456 11.2014 31.6736 10.8726C32.0017 10.5438 32.4465 10.3591 32.9104 10.3591ZM11.9217 24.3857C11.5757 24.3857 11.2376 24.2828 10.9499 24.0902C10.6623 23.8975 10.4381 23.6237 10.3058 23.3033C10.1734 22.9829 10.1387 22.6304 10.2062 22.2903C10.2737 21.9502 10.4403 21.6378 10.6849 21.3926C10.9295 21.1473 11.2412 20.9804 11.5804 20.9127C11.9197 20.8451 12.2714 20.8798 12.591 21.0125C12.9106 21.1452 13.1838 21.3699 13.376 21.6582C13.5682 21.9466 13.6707 22.2856 13.6707 22.6323C13.6707 23.0973 13.4865 23.5433 13.1584 23.8721C12.8304 24.2009 12.3856 24.3857 11.9217 24.3857ZM32.9104 34.9056C32.5645 34.9056 32.2263 34.8028 31.9387 34.6101C31.6511 34.4174 31.4269 34.1436 31.2945 33.8232C31.1621 33.5029 31.1275 33.1503 31.195 32.8102C31.2625 32.4701 31.429 32.1577 31.6736 31.9125C31.9183 31.6673 32.2299 31.5003 32.5692 31.4326C32.9085 31.365 33.2602 31.3997 33.5798 31.5324C33.8994 31.6651 34.1725 31.8898 34.3647 32.1782C34.5569 32.4665 34.6595 32.8055 34.6595 33.1523C34.6595 33.6173 34.4752 34.0632 34.1472 34.3921C33.8192 34.7209 33.3743 34.9056 32.9104 34.9056Z" fill="white" stroke="white" stroke-width="0.46875"/>
</svg>
