<svg width="36" height="36" viewBox="0 0 36 36" fill="none" xmlns="http://www.w3.org/2000/svg">
<mask id="mask0_92_9" style="mask-type:luminance" maskUnits="userSpaceOnUse" x="0" y="0" width="36" height="36">
<path d="M36 0H0V36H36V0Z" fill="white"/>
</mask>
<g mask="url(#mask0_92_9)">
<path opacity="0.15" fill-rule="evenodd" clip-rule="evenodd" d="M0.0939941 17.953C0.0939941 8.12839 8.1284 0.0939941 17.953 0.0939941C27.7777 0.0939941 35.812 8.1284 35.812 17.953C35.812 27.7776 27.7777 35.8121 17.953 35.8121C8.1284 35.8121 0.0939941 27.7776 0.0939941 17.953ZM17.953 1.97389C9.16664 1.97389 1.97389 9.16663 1.97389 17.953C1.97389 26.7394 9.16665 33.9322 17.953 33.9322C26.7394 33.9322 33.9321 26.7394 33.9321 17.953C33.9321 9.16663 26.7394 1.97389 17.953 1.97389Z" fill="#1E2D78"/>
<path fill-rule="evenodd" clip-rule="evenodd" d="M17.953 1.97389C15.7919 1.97389 13.7287 2.40854 11.8452 3.1945L11.1213 1.45958C13.2289 0.580114 15.5377 0.0939941 17.953 0.0939941C20.3684 0.0939941 22.6772 0.580114 24.7848 1.45958L24.0608 3.1945C22.1773 2.40854 20.1142 1.97389 17.953 1.97389ZM3.1945 11.8452C2.40854 13.7287 1.97389 15.7918 1.97389 17.953C1.97389 20.1142 2.40854 22.1773 3.1945 24.0608L1.45959 24.7848C0.580116 22.6771 0.0939941 20.3683 0.0939941 17.953C0.0939941 15.5377 0.580117 13.2289 1.45959 11.1212L3.1945 11.8452ZM33.9321 17.953C33.9321 15.7918 33.4974 13.7287 32.7115 11.8452L34.4464 11.1212C35.3259 13.2289 35.812 15.5377 35.812 17.953C35.812 20.3683 35.3259 22.6771 34.4464 24.7848L32.7115 24.0608C33.4974 22.1773 33.9321 20.1142 33.9321 17.953ZM11.8452 32.7115C13.7287 33.4975 15.7919 33.9322 17.953 33.9322C20.1142 33.9322 22.1773 33.4975 24.0609 32.7115L24.7848 34.4465C22.6772 35.3259 20.3684 35.8121 17.953 35.8121C15.5377 35.8121 13.2289 35.3259 11.1213 34.4465L11.8452 32.7115Z" fill="#1E2D78"/>
<path fill-rule="evenodd" clip-rule="evenodd" d="M15.9089 12.3743L21.5862 17.9484L15.9135 23.6212L14.9165 22.6242L19.5831 17.9576L14.9211 13.3803L15.9089 12.3743Z" fill="#1E2D78"/>
</g>
</svg>
