<svg width="24" height="24" viewBox="0 0 24 24" fill="none" xmlns="http://www.w3.org/2000/svg">
<path d="M19 19L15.4563 15.4563M15.4563 15.4563C16.0251 14.8876 16.4763 14.2123 16.7841 13.4692C17.0919 12.726 17.2504 11.9295 17.2504 11.1252C17.2504 10.3208 17.0919 9.52431 16.7841 8.78117C16.4763 8.03803 16.0251 7.3628 15.4563 6.79402C14.8876 6.22525 14.2123 5.77407 13.4692 5.46625C12.726 5.15843 11.9295 5 11.1252 5C10.3208 5 9.52431 5.15843 8.78117 5.46625C8.03803 5.77407 7.3628 6.22525 6.79402 6.79402C5.64533 7.94272 5 9.50068 5 11.1252C5 12.7497 5.64533 14.3076 6.79402 15.4563C7.94272 16.605 9.50068 17.2504 11.1252 17.2504C12.7497 17.2504 14.3076 16.605 15.4563 15.4563Z" stroke="#2E3192" stroke-width="2" stroke-linecap="round" stroke-linejoin="round"/>
</svg>
